<?xml version="1.0" encoding="UTF-8"?>
<svg version="1.1" xmlns="http://www.w3.org/2000/svg" width="512" height="512">
<path d="M0 0 C1.92767732 -0.00572118 3.85535126 -0.01269209 5.78302002 -0.02079773 C10.95887678 -0.0385524 16.13456239 -0.03759439 21.3104403 -0.03185534 C25.65865648 -0.02873729 30.00684101 -0.03488479 34.35505265 -0.04089409 C44.62719147 -0.05487997 54.89924702 -0.05342808 65.17138672 -0.04199219 C75.70796416 -0.03051987 86.24428679 -0.04458553 96.78083068 -0.07138866 C105.88383578 -0.09366339 114.98676158 -0.10015662 124.08979195 -0.09431225 C129.50167369 -0.09096911 134.91339226 -0.09317914 140.32525063 -0.11056328 C145.42025536 -0.12621937 150.51488753 -0.12187385 155.60987854 -0.10325813 C157.45993169 -0.09962307 159.31001364 -0.10252832 161.1600399 -0.11314392 C177.39845415 -0.19907471 193.75770594 1.2436045 208.92456055 7.40405273 C208.5462207 7.90469238 208.16788086 8.40533203 207.77807617 8.92114258 C206.77007481 10.2582353 205.76771097 11.59958165 204.76831055 12.94311523 C203.51410484 14.61716099 202.24250011 16.27828099 200.95581055 17.92749023 C187.39752571 35.70970227 181.83006174 57.35871512 184.14282227 79.49291992 C187.32263314 101.99189808 198.93641679 121.89731937 216.61987305 136.04858398 C225.80159324 142.81683931 236.0282818 147.20019785 246.92456055 150.40405273 C248.92665802 151.06439366 250.92721589 151.72947231 252.92456055 152.40405273 C252.85237305 153.28706055 252.78018555 154.17006836 252.70581055 155.07983398 C250.55512219 182.88942924 255.19206415 206.08371702 273.5925293 227.81030273 C285.53645182 241.09466547 300.11975947 248.15898018 316.92456055 253.40405273 C315.92456055 255.40405273 315.92456055 255.40405273 312.86206055 256.52905273 C311.40799805 256.96217773 311.40799805 256.96217773 309.92456055 257.40405273 C310.64772461 257.98413086 310.64772461 257.98413086 311.38549805 258.57592773 C312.01713867 259.09670898 312.6487793 259.61749023 313.29956055 260.15405273 C313.92604492 260.66452148 314.5525293 261.17499023 315.19799805 261.70092773 C318.64837796 265.10446992 319.16192229 268.12225229 319.25375366 272.93560791 C319.25709213 274.01053497 319.25709213 274.01053497 319.26049805 275.10717773 C319.26715485 275.86262878 319.27381165 276.61807983 319.28067017 277.39642334 C319.29078921 279.00017881 319.29548742 280.60397631 319.29516602 282.20776367 C319.29947186 284.60468312 319.33560448 286.9996549 319.3737793 289.39624023 C319.54796149 313.24469895 311.37604472 334.35018341 294.7487793 351.61108398 C277.30069144 368.86610863 255.19596946 376.91755079 230.8518219 376.78500366 C229.49336639 376.78847056 228.13491371 376.79324197 226.77646679 376.7991854 C223.08586061 376.81158381 219.39549039 376.80557664 215.70488393 376.79622674 C211.70819867 376.78939018 207.71155171 376.79994016 203.71487427 376.8081665 C195.90179964 376.82145762 188.08881182 376.8186467 180.2757339 376.80992858 C173.92130764 376.80313368 167.56690558 376.8022431 161.21247673 376.80550003 C160.30561058 376.80595973 159.39874444 376.80641943 158.4643975 376.80689306 C156.62169194 376.80785231 154.77898639 376.80882495 152.93628084 376.80981083 C135.68509524 376.81835132 118.43395758 376.80855195 101.18277984 376.79240973 C86.40552063 376.77901005 71.62833215 376.78133437 56.85107422 376.79516602 C39.66015283 376.8112495 22.46927339 376.81752508 5.27834553 376.80832922 C3.44238373 376.80737365 1.60642193 376.80643054 -0.22953987 376.80550003 C-1.58426752 376.80480579 -1.58426752 376.80480579 -2.96636341 376.80409753 C-9.30690047 376.80151576 -15.64741074 376.80586106 -21.98794365 376.81293869 C-29.72398458 376.82138482 -37.45993428 376.81900857 -45.19596487 376.80309646 C-49.13711503 376.79525505 -53.07811354 376.79205084 -57.01926231 376.80204391 C-60.63717077 376.81107808 -64.25478906 376.80591703 -67.87267173 376.79011126 C-69.77962646 376.78524869 -71.68660185 376.79488135 -73.59353441 376.80528295 C-85.11967232 376.72803275 -96.81572934 375.1383326 -107.32543945 370.15405273 C-108.32172363 369.69627441 -108.32172363 369.69627441 -109.33813477 369.22924805 C-130.0536118 359.47784062 -145.22870309 343.59026293 -154.07543945 322.40405273 C-157.30360939 313.28783289 -159.21030672 304.29736197 -159.3137207 294.62670898 C-159.32179245 293.89713486 -159.3298642 293.16756073 -159.33818054 292.4158783 C-159.35194024 290.88046591 -159.36269825 289.34502399 -159.37060547 287.80957031 C-159.38214889 286.24925688 -159.40263815 284.68898366 -159.43212891 283.12890625 C-159.47498467 280.85707175 -159.49099359 278.58639837 -159.5012207 276.31420898 C-159.51872879 275.62545181 -159.53623688 274.93669464 -159.55427551 274.22706604 C-159.53013442 268.77421259 -158.06216651 265.80069716 -155.07543945 261.40405273 C-152.32543945 258.96655273 -152.32543945 258.96655273 -150.07543945 257.40405273 C-150.88625977 257.19651367 -151.69708008 256.98897461 -152.5324707 256.77514648 C-168.70424889 252.27566455 -179.7936926 243.51182536 -188.4074707 229.18920898 C-194.35346171 217.94304622 -194.73202891 204.11997228 -192.38793945 191.78686523 C-187.80810631 177.0932339 -178.69190813 166.12946538 -165.19262695 158.84936523 C-159.91606363 156.36541203 -154.78222698 154.58848033 -149.07543945 153.40405273 C-150.00356445 152.70280273 -150.93168945 152.00155273 -151.88793945 151.27905273 C-155.71737242 148.01090782 -157.72029104 145.11808817 -158.3918457 139.98608398 C-158.79699131 130.51090437 -156.51314801 121.48537546 -154.07543945 112.40405273 C-153.88240234 111.67943848 -153.68936523 110.95482422 -153.49047852 110.20825195 C-147.92525978 90.07202947 -137.59306697 71.27964862 -124.07543945 55.40405273 C-123.53161621 54.76532227 -122.98779297 54.1265918 -122.42749023 53.46850586 C-102.81557968 30.80585366 -77.70720149 14.99454512 -49.13793945 6.09155273 C-48.41300293 5.86105225 -47.68806641 5.63055176 -46.94116211 5.39306641 C-31.57913741 0.89028995 -15.90521577 -0.0434293 0 0 Z " fill="#FEC007" transform="translate(193.075439453125,67.595947265625)"/>
<path d="M0 0 C1.15227841 -0.00307895 1.15227841 -0.00307895 2.32783517 -0.0062201 C4.92301084 -0.01191136 7.51813379 -0.01043024 10.11331463 -0.00901413 C11.98428763 -0.01159654 13.85526008 -0.01460936 15.72623175 -0.01801753 C20.88418729 -0.02610525 26.04212892 -0.02787809 31.20009005 -0.028615 C36.75644501 -0.03046246 42.31279271 -0.03800821 47.86914349 -0.04475021 C60.02600481 -0.05834635 72.18286284 -0.06436016 84.3397305 -0.06876087 C91.92614166 -0.07152097 99.51255154 -0.07575788 107.09896183 -0.08026505 C128.09117354 -0.09245907 149.08338457 -0.10279372 170.07559967 -0.10614014 C171.43335803 -0.10636177 172.79111638 -0.10658355 174.14887474 -0.10680549 C175.50993467 -0.10702613 176.8709946 -0.10724661 178.23205453 -0.10746694 C180.96263142 -0.10790949 183.69320832 -0.10835661 186.42378521 -0.10880661 C187.10081058 -0.108916 187.77783595 -0.10902539 188.47537724 -0.1091381 C210.43322611 -0.11276959 232.39104198 -0.128693 254.34887821 -0.15199697 C277.55720254 -0.17658313 300.76550874 -0.19030567 323.97384852 -0.19150805 C336.62781624 -0.19242595 349.28174076 -0.19820712 361.9356966 -0.21632767 C372.70912918 -0.23170061 383.48250521 -0.23686572 394.25594667 -0.22858956 C399.75535208 -0.22467318 405.25464349 -0.22566075 410.754035 -0.23964691 C415.78559607 -0.25232658 420.81695681 -0.25124077 425.84851738 -0.2390562 C427.6715391 -0.23708887 429.49457473 -0.24022506 431.31757686 -0.24890056 C433.79100868 -0.25992883 436.26372541 -0.2525508 438.73713684 -0.24050903 C439.80476665 -0.25190182 439.80476665 -0.25190182 440.89396474 -0.26352477 C446.17778462 -0.20779383 450.29400345 1.01863113 454.20186138 4.66658401 C458.02361938 9.66426755 458.73282527 12.46052224 458.79561138 18.63924026 C458.80368313 19.39752121 458.81175488 20.15580215 458.82007122 20.93706131 C458.83392866 22.55277086 458.84464337 24.1685099 458.85249615 25.7842598 C458.86387702 27.40739633 458.88410056 29.03049975 458.91401958 30.65340042 C459.37159641 55.49547644 451.82370686 77.23161179 434.38154888 95.33845901 C416.93346102 112.59348366 394.82873905 120.64492582 370.48459148 120.51237869 C369.12613598 120.51584559 367.7676833 120.520617 366.40923637 120.52656043 C362.7186302 120.53895884 359.02825998 120.53295167 355.33765352 120.52360177 C351.34096826 120.51676521 347.3443213 120.52731519 343.34764385 120.53554153 C335.53456923 120.54883265 327.72158141 120.54602173 319.90850348 120.53730361 C313.55407722 120.53050871 307.19967517 120.52961813 300.84524632 120.53287506 C299.93838017 120.53333476 299.03151402 120.53379446 298.09716709 120.53426809 C296.25446152 120.53522734 294.41175597 120.53619998 292.56905042 120.53718586 C275.31786482 120.54572635 258.06672716 120.53592698 240.81554943 120.51978476 C226.03829022 120.50638508 211.26110173 120.50870941 196.4838438 120.52254105 C179.29292241 120.53862453 162.10204298 120.54490011 144.91111511 120.53570426 C143.07515332 120.53474868 141.23919152 120.53380557 139.40322971 120.53287506 C138.04850206 120.53218082 138.04850206 120.53218082 136.66640617 120.53147256 C130.32586912 120.52889079 123.98535884 120.53323609 117.64482594 120.54031372 C109.90878501 120.54875985 102.1728353 120.5463836 94.43680472 120.53047149 C90.49565455 120.52263009 86.55465604 120.51942587 82.61350727 120.52941895 C78.99559881 120.53845311 75.37798052 120.53329206 71.76009785 120.51748629 C69.85314312 120.51262372 67.94616774 120.52225638 66.03923517 120.53265798 C54.51309727 120.45540779 42.81704024 118.86570763 32.30733013 113.88142776 C31.64314068 113.57624222 30.97895123 113.27105667 30.29463482 112.95662308 C9.57915778 103.20521565 -5.59593351 87.31763796 -14.44266987 66.13142776 C-17.6708398 57.01520792 -19.57753713 48.024737 -19.68095112 38.35408401 C-19.68902287 37.62450989 -19.69709461 36.89493576 -19.70541096 36.14325333 C-19.71917066 34.60784094 -19.72992866 33.07239902 -19.73783588 31.53694534 C-19.74937931 29.97663191 -19.76986856 28.4163587 -19.79935932 26.85628128 C-19.84221509 24.58444678 -19.858224 22.3137734 -19.86845112 20.04158401 C-19.88595921 19.35282684 -19.90346729 18.66406967 -19.92150593 17.95444107 C-19.89737118 12.5030212 -18.41914735 9.53160085 -15.44266987 5.13142776 C-10.45794376 0.51143772 -6.57140444 -0.01617736 0 0 Z " fill="#FEC007" transform="translate(53.44266986846924,323.8685722351074)"/>
<path d="M0 0 C0.69009509 -0.00115384 1.38019019 -0.00230769 2.09119725 -0.0034965 C4.414657 -0.00615343 6.73804812 -0.00164857 9.06150436 0.00279331 C10.7396257 0.00235742 12.41774697 0.00148219 14.09586787 0.00020415 C18.7158781 -0.00203731 23.33586525 0.00197573 27.95587254 0.00698221 C32.93471718 0.0112915 37.91356048 0.00983994 42.89240646 0.00907993 C51.52148117 0.008555 60.15054832 0.01169858 68.77962112 0.01731777 C81.25588805 0.02543695 93.73215132 0.02804842 106.2084206 0.02930576 C126.44922517 0.03149562 146.69002571 0.03815393 166.93082809 0.04760838 C186.59554143 0.05678419 206.26025368 0.0638642 225.92496872 0.06811619 C227.74247269 0.06851027 227.74247269 0.06851027 229.5966939 0.06891232 C235.67514429 0.07021734 241.75359468 0.07148105 247.83204508 0.07272422 C298.27708491 0.08309478 348.72212037 0.10071132 399.16715622 0.12304783 C399.06322556 1.33214817 399.06322556 1.33214817 398.95719528 2.56567478 C398.86663864 3.6326157 398.776082 4.69955662 398.68278122 5.79882908 C398.54791306 7.37917942 398.54791306 7.37917942 398.41032028 8.99145603 C396.52616475 33.2565795 404.1605408 55.02133111 419.83512497 73.52929783 C431.77904749 86.81366056 446.36235515 93.87797528 463.16715622 99.12304783 C462.16715622 101.12304783 462.16715622 101.12304783 460.58755219 101.73983359 C457.20530505 102.27533492 453.85550929 102.26272259 450.44082069 102.25447559 C449.26075093 102.25755454 449.26075093 102.25755454 448.05684137 102.2606957 C445.4046224 102.26637749 442.75245517 102.26490699 440.10023117 102.26348972 C438.1858731 102.26607269 436.27151556 102.26908565 434.35715878 102.27249312 C429.0837678 102.28057454 423.81039042 102.28235333 418.53699398 102.28309059 C412.85447129 102.28493918 407.1719557 102.29248556 401.4894371 102.29922581 C389.05758178 102.31281805 376.62572968 102.31883532 364.19386816 102.32323647 C356.43337784 102.32599754 348.67288877 102.33023466 340.91239929 102.33474064 C319.43204616 102.34693477 297.95169466 102.35726899 276.47133827 102.36061573 C275.0821634 102.36083736 273.69298852 102.36105915 272.30381364 102.36128108 C270.91128453 102.36150172 269.51875542 102.3617222 268.12622631 102.36194253 C265.33257794 102.36238508 262.53892958 102.3628322 259.74528122 102.3632822 C259.0526185 102.36339159 258.35995579 102.36350099 257.64630329 102.36361369 C235.18957701 102.36724386 212.73288302 102.3831621 190.27616911 102.40647257 C166.53267124 102.43107366 142.78919555 102.44478199 119.04568398 102.44598365 C106.10320464 102.44690079 93.16076757 102.45266298 80.21829987 102.47080326 C69.19723913 102.48619584 58.17623373 102.49132969 47.15516429 102.48306516 C41.53171599 102.47915561 35.90837915 102.48010322 30.28494453 102.49412251 C25.13540546 102.50684297 19.98606181 102.50568009 14.83652307 102.49353179 C12.97510236 102.49157159 11.11366789 102.49466815 9.25226651 102.50337616 C-2.35443329 102.55423009 -12.68921901 102.38764681 -22.64534378 95.68554783 C-23.51803909 95.10933689 -24.39073441 94.53312595 -25.28987503 93.93945408 C-36.38755879 86.01253711 -44.34459887 74.65599348 -46.83284378 61.12304783 C-48.47381666 44.01132731 -45.23065489 30.50129294 -34.96175003 16.58789158 C-26.3077946 6.56835786 -13.182451 -0.00406364 0 0 Z " fill="#D32F2F" transform="translate(46.83284378051758,221.87695217132568)"/>
</svg>
